<?xml version="1.0" standalone="no"?>
<!DOCTYPE svg PUBLIC "-//W3C//DTD SVG 1.1//EN" "http://www.w3.org/Graphics/SVG/1.1/DTD/svg11.dtd" >
<svg xmlns="http://www.w3.org/2000/svg" xmlns:xlink="http://www.w3.org/1999/xlink" version="1.1" viewBox="-30 -210 2570 2248">
  <g transform="matrix(1 0 0 -1 0 1638)">
   <path fill="currentColor"
d="M1073 536v-47h228v31q0 73 28 123q29 50 146 146q60 49 100 85.5t60 62.5q42 53 62 111.5t20 141.5q0 89 -31 160t-91.5 120.5t-149 76t-203.5 26.5q-203 0 -436 -122l86 -189q216 103 346 103q103 0 162 -50.5t59 -141.5q0 -85 -35 -143q-17 -30 -56 -68t-101 -87
q-57 -45 -95 -85.5t-58 -79.5q-41 -79 -41 -174zM1381 520v-110h-387v126q0 114 47 205q25 47 69 95t109 101q100 80 122 109t31 59t9 68q0 50 -34 82.5t-109 31.5q-36 0 -75.5 -8.5t-81.5 -22.5q-42 -15 -98 -39.5t-128 -59.5l-152 326q299 169 539 169q257 0 405 -124
q75 -63 112.5 -146t37.5 -192q0 -137 -59 -238q-29 -51 -82.5 -106.5t-132.5 -117.5q-49 -39 -79 -68t-41 -46q-12 -17 -17 -41t-5 -53zM1201 210q-166 0 -166 -158q0 -44 12.5 -74.5t34.5 -49.5t52 -27.5t65 -8.5q81 0 123 42.5t42 117.5q0 158 -163 158zM1201 -186
q-115 0 -180.5 61.5t-65.5 176.5t66 175.5t178 60.5q116 0 180.5 -62t64.5 -174q0 -54 -16.5 -98t-48 -75t-76.5 -48t-102 -17z" />
  </g>

</svg>
